<svg id="Layer_1" data-name="Layer 1" xmlns="http://www.w3.org/2000/svg" viewBox="0 0 416.89 94.56"><defs><style>.cls-1{fill:#5ed08c;}</style></defs><path class="cls-1" d="M124,63a12.48,12.48,0,0,1-5.33-3.82,9,9,0,0,1-1.9-5.18,1,1,0,0,1,.34-.75,1.09,1.09,0,0,1,.81-.34h6.55a2,2,0,0,1,1,.23,3.6,3.6,0,0,1,.81.71,5.42,5.42,0,0,0,2.18,2.23,7.89,7.89,0,0,0,4,.89A8.93,8.93,0,0,0,137,56a2.85,2.85,0,0,0,1.56-2.55,2.41,2.41,0,0,0-.81-1.87,7,7,0,0,0-2.52-1.3q-1.71-.57-5.09-1.3-6.24-1.3-9.34-3.82a8.76,8.76,0,0,1-3.09-7.2,9.54,9.54,0,0,1,1.77-5.67,11.46,11.46,0,0,1,5-3.9A19.18,19.18,0,0,1,132.17,27,18.37,18.37,0,0,1,140,28.54a13.05,13.05,0,0,1,5.07,3.93,8.56,8.56,0,0,1,1.84,4.65,1,1,0,0,1-.31.78,1.06,1.06,0,0,1-.78.32H139a2.15,2.15,0,0,1-1-.21,2,2,0,0,1-.7-.68,3.44,3.44,0,0,0-1.69-2,7.77,7.77,0,0,0-7,0,2.74,2.74,0,0,0-1.25,2.45,2.51,2.51,0,0,0,.7,1.82,6.21,6.21,0,0,0,2.29,1.32,32.91,32.91,0,0,0,4.55,1.23,33,33,0,0,1,7.72,2.21,9.78,9.78,0,0,1,3.59,14.76,12.62,12.62,0,0,1-5.57,4,22.57,22.57,0,0,1-8.13,1.37A22.25,22.25,0,0,1,124,63Z" transform="translate(-14.17 -24.15)"/><path class="cls-1" d="M155,61q-3.58-3.37-3.74-9.82V49.4q.21-6.13,3.82-9.6t9.7-3.46a14.44,14.44,0,0,1,7.46,1.8,11.48,11.48,0,0,1,4.58,4.91,16.1,16.1,0,0,1,1.53,7.18v1.25a1.31,1.31,0,0,1-.36.91,1.24,1.24,0,0,1-.94.39H160.41v.36a7.09,7.09,0,0,0,1.2,4,3.65,3.65,0,0,0,3.17,1.51,3.77,3.77,0,0,0,2.13-.55,7.23,7.23,0,0,0,1.51-1.32,2.46,2.46,0,0,1,.75-.7,2.3,2.3,0,0,1,.91-.13h6.45a1.23,1.23,0,0,1,.81.28,1,1,0,0,1,.33.76,5.12,5.12,0,0,1-1.53,3.12,12.49,12.49,0,0,1-4.45,3.06,16.66,16.66,0,0,1-6.86,1.3Q158.59,64.42,155,61Zm14.2-13.41v-.11a6.35,6.35,0,0,0-1.17-4A3.94,3.94,0,0,0,164.78,42a3.88,3.88,0,0,0-3.2,1.48,6.35,6.35,0,0,0-1.17,4v.11Z" transform="translate(-14.17 -24.15)"/><path class="cls-1" d="M185.86,63.36a8.71,8.71,0,0,1-3.53-2.91,7.05,7.05,0,0,1-1.28-4.09A6.85,6.85,0,0,1,184,50.59a18.42,18.42,0,0,1,8.09-3l6.5-1v-.73a4.3,4.3,0,0,0-.83-2.91,3.59,3.59,0,0,0-2.81-.94,4.15,4.15,0,0,0-2,.42,8.89,8.89,0,0,0-1.61,1.14,7.58,7.58,0,0,1-1.09.83.58.58,0,0,1-.57.42H184a1.15,1.15,0,0,1-.86-.34.93.93,0,0,1-.29-.8,5.7,5.7,0,0,1,1.38-3.12,10.53,10.53,0,0,1,4.06-3A16.17,16.17,0,0,1,195,36.34q6.41,0,9.47,2.84a9.89,9.89,0,0,1,3.06,7.62V62.6a1.29,1.29,0,0,1-.36.91,1.21,1.21,0,0,1-.94.39h-6a1.33,1.33,0,0,1-1.3-1.3V60.78a8.33,8.33,0,0,1-3.2,2.63,10.82,10.82,0,0,1-4.86,1A11.64,11.64,0,0,1,185.86,63.36Zm11.34-6.42a6.41,6.41,0,0,0,1.48-4.58v-.73l-4.42.78q-4.68.84-4.68,3.28a2.38,2.38,0,0,0,1.09,2.05,4.61,4.61,0,0,0,2.66.76A5.1,5.1,0,0,0,197.2,56.94Z" transform="translate(-14.17 -24.15)"/><path class="cls-1" d="M213.35,63.54a1.24,1.24,0,0,1-.37-.94V38.16a1.23,1.23,0,0,1,.37-.93,1.27,1.27,0,0,1,.93-.37h6a1.3,1.3,0,0,1,1,.39,1.26,1.26,0,0,1,.39.91v2.08a9.59,9.59,0,0,1,7.7-3.38h2.29a1.27,1.27,0,0,1,.93.37,1.23,1.23,0,0,1,.37.93v5.36a1.26,1.26,0,0,1-.37.91,1.21,1.21,0,0,1-.93.39h-5a4.07,4.07,0,0,0-4.47,4.47V62.6a1.21,1.21,0,0,1-.39.94,1.36,1.36,0,0,1-1,.36h-6.45A1.26,1.26,0,0,1,213.35,63.54Z" transform="translate(-14.17 -24.15)"/><path class="cls-1" d="M238.77,61.28a11.78,11.78,0,0,1-3.9-8.76l-.05-2.08.05-2.14a11.58,11.58,0,0,1,3.88-8.78,14,14,0,0,1,9.54-3.18,16,16,0,0,1,7.46,1.59,11.9,11.9,0,0,1,4.53,3.8,8.33,8.33,0,0,1,1.58,4,1.08,1.08,0,0,1-.34.91,1.3,1.3,0,0,1-1,.39H254a1.39,1.39,0,0,1-.89-.26,2.81,2.81,0,0,1-.57-.78,4.77,4.77,0,0,0-1.58-2.29,4.24,4.24,0,0,0-2.47-.68q-4.27,0-4.42,5.51l-.06,2,.06,1.72a6.69,6.69,0,0,0,1.22,4.13,4,4,0,0,0,3.2,1.33A4.25,4.25,0,0,0,251,57a4.57,4.57,0,0,0,1.51-2.29,2.81,2.81,0,0,1,.57-.78,1.39,1.39,0,0,1,.89-.26h6.6a1.32,1.32,0,0,1,.91.34,1.09,1.09,0,0,1,.39.86,7.5,7.5,0,0,1-1.43,3.9,12,12,0,0,1-4.5,3.92,15.62,15.62,0,0,1-7.64,1.69A14,14,0,0,1,238.77,61.28Z" transform="translate(-14.17 -24.15)"/><path class="cls-1" d="M266.46,63.51a1.24,1.24,0,0,1-.39-.91V28.28a1.21,1.21,0,0,1,.39-.93,1.32,1.32,0,0,1,.91-.37H274a1.31,1.31,0,0,1,.94.37,1.26,1.26,0,0,1,.36.93v11.6a10.43,10.43,0,0,1,8.22-3.54,10.57,10.57,0,0,1,5.38,1.36,9.38,9.38,0,0,1,3.72,4A14,14,0,0,1,294,48.1V62.6a1.26,1.26,0,0,1-.37.91,1.21,1.21,0,0,1-.93.39H286a1.33,1.33,0,0,1-1.3-1.3V48.41a5.51,5.51,0,0,0-1.17-3.77,4.29,4.29,0,0,0-3.41-1.33,4.62,4.62,0,0,0-3.51,1.33,5.21,5.21,0,0,0-1.27,3.77V62.6a1.27,1.27,0,0,1-.36.94,1.3,1.3,0,0,1-.94.36h-6.66A1.26,1.26,0,0,1,266.46,63.51Z" transform="translate(-14.17 -24.15)"/><path class="cls-1" d="M124,117a12.48,12.48,0,0,1-5.33-3.82,9,9,0,0,1-1.9-5.18,1,1,0,0,1,.34-.75,1.09,1.09,0,0,1,.81-.34h6.55a2,2,0,0,1,1,.23,3.6,3.6,0,0,1,.81.71,5.42,5.42,0,0,0,2.18,2.23,7.89,7.89,0,0,0,4,.89A8.93,8.93,0,0,0,137,110a2.85,2.85,0,0,0,1.56-2.55,2.41,2.41,0,0,0-.81-1.87,7,7,0,0,0-2.52-1.3q-1.71-.57-5.09-1.3-6.24-1.31-9.34-3.82a8.76,8.76,0,0,1-3.09-7.2,9.54,9.54,0,0,1,1.77-5.67,11.46,11.46,0,0,1,5-3.9A19.18,19.18,0,0,1,132.17,81,18.37,18.37,0,0,1,140,82.54a13.05,13.05,0,0,1,5.07,3.93,8.56,8.56,0,0,1,1.84,4.65,1,1,0,0,1-.31.78,1.06,1.06,0,0,1-.78.32H139a2.15,2.15,0,0,1-1-.21,2,2,0,0,1-.7-.68,3.44,3.44,0,0,0-1.69-2,7.77,7.77,0,0,0-7,0,2.74,2.74,0,0,0-1.25,2.45,2.51,2.51,0,0,0,.7,1.82,6.21,6.21,0,0,0,2.29,1.32,32.91,32.91,0,0,0,4.55,1.23,33,33,0,0,1,7.72,2.21,9.78,9.78,0,0,1,3.59,14.76,12.62,12.62,0,0,1-5.57,4,22.57,22.57,0,0,1-8.13,1.37A22.25,22.25,0,0,1,124,117Z" transform="translate(-14.17 -24.15)"/><path class="cls-1" d="M154.9,115.33q-2.81-3.09-2.81-8.66V92.16a1.26,1.26,0,0,1,.36-.93,1.31,1.31,0,0,1,.94-.37h6.5a1.37,1.37,0,0,1,1,.37,1.21,1.21,0,0,1,.39.93v14.2q0,5.1,4.53,5.1a4.42,4.42,0,0,0,3.43-1.36,5.31,5.31,0,0,0,1.25-3.74V92.16a1.21,1.21,0,0,1,.39-.93,1.3,1.3,0,0,1,.91-.37h6.5a1.26,1.26,0,0,1,1.3,1.3V116.6a1.3,1.3,0,0,1-.37.91,1.21,1.21,0,0,1-.93.39h-6a1.26,1.26,0,0,1-.91-.39,1.24,1.24,0,0,1-.39-.91v-2q-2.7,3.8-8.63,3.79A9.49,9.49,0,0,1,154.9,115.33Z" transform="translate(-14.17 -24.15)"/><path class="cls-1" d="M189.3,117.23a10.6,10.6,0,0,1-4.19-2.86,5,5,0,0,1-1.35-3,1.07,1.07,0,0,1,.39-.85,1.25,1.25,0,0,1,.86-.34h5.92a.79.79,0,0,1,.58.26c.41.28.72.5.93.67a11.69,11.69,0,0,0,2,1.23,5.13,5.13,0,0,0,2.11.39,4.61,4.61,0,0,0,2.47-.6,1.88,1.88,0,0,0,1-1.69,2,2,0,0,0-.49-1.41,5.11,5.11,0,0,0-1.9-1,35.69,35.69,0,0,0-4.26-1.07,14.46,14.46,0,0,1-6.63-2.88,6.74,6.74,0,0,1-2.32-5.38,6.93,6.93,0,0,1,1.35-4.06,9.63,9.63,0,0,1,4-3.12,15.51,15.51,0,0,1,6.37-1.2,16.81,16.81,0,0,1,6.45,1.15,11.14,11.14,0,0,1,4.19,2.78,4.79,4.79,0,0,1,1.43,3,1.21,1.21,0,0,1-.34.83,1.08,1.08,0,0,1-.81.37h-5.4a1.33,1.33,0,0,1-.78-.26,8.9,8.9,0,0,1-1.2-.78,9.07,9.07,0,0,0-1.66-1,4.46,4.46,0,0,0-1.93-.37,3.42,3.42,0,0,0-2.16.63,2,2,0,0,0-.8,1.61,1.92,1.92,0,0,0,.44,1.3,4.54,4.54,0,0,0,1.87,1,32,32,0,0,0,4.24,1q5,.89,7.36,3.12a7.19,7.19,0,0,1-1.12,11.41q-3.43,2.31-9.57,2.31A18.25,18.25,0,0,1,189.3,117.23Z" transform="translate(-14.17 -24.15)"/><path class="cls-1" d="M216.41,107.66v-10h-4a1.37,1.37,0,0,1-1-.37,1.21,1.21,0,0,1-.39-.93V92.16a1.21,1.21,0,0,1,.39-.93,1.37,1.37,0,0,1,1-.37h4V82.28a1.21,1.21,0,0,1,.39-.93,1.32,1.32,0,0,1,.91-.37h6a1.26,1.26,0,0,1,1.3,1.3v8.58h6.5a1.37,1.37,0,0,1,1,.37,1.21,1.21,0,0,1,.39.93v4.22a1.21,1.21,0,0,1-.39.93,1.37,1.37,0,0,1-1,.37h-6.5v9.25c0,2.57,1,3.85,3,3.85h4a1.27,1.27,0,0,1,.94.36,1.3,1.3,0,0,1,.36.94v4.52a1.29,1.29,0,0,1-.36.91,1.21,1.21,0,0,1-.94.39h-4.83Q216.41,117.9,216.41,107.66Z" transform="translate(-14.17 -24.15)"/><path class="cls-1" d="M240.26,117.36a8.67,8.67,0,0,1-3.54-2.91,7,7,0,0,1-1.27-4.09,6.84,6.84,0,0,1,2.93-5.77,18.42,18.42,0,0,1,8.09-3l6.5-1v-.73a4.3,4.3,0,0,0-.83-2.91,3.59,3.59,0,0,0-2.81-.94,4.15,4.15,0,0,0-2,.42,9.26,9.26,0,0,0-1.61,1.14,7.05,7.05,0,0,1-1.09.83.57.57,0,0,1-.57.42h-5.67a1.15,1.15,0,0,1-.86-.34.92.92,0,0,1-.28-.8,5.61,5.61,0,0,1,1.37-3.12,10.53,10.53,0,0,1,4.06-3,16.17,16.17,0,0,1,6.73-1.25q6.4,0,9.47,2.84A9.89,9.89,0,0,1,262,100.8v15.8a1.3,1.3,0,0,1-.37.91,1.21,1.21,0,0,1-.93.39h-6a1.26,1.26,0,0,1-.91-.39,1.24,1.24,0,0,1-.39-.91v-1.82a8.37,8.37,0,0,1-3.19,2.63,10.86,10.86,0,0,1-4.87,1A11.59,11.59,0,0,1,240.26,117.36Zm11.33-6.42a6.41,6.41,0,0,0,1.48-4.58v-.73l-4.42.78q-4.68.84-4.68,3.28a2.37,2.37,0,0,0,1.1,2,4.55,4.55,0,0,0,2.65.76A5.1,5.1,0,0,0,251.59,110.94Z" transform="translate(-14.17 -24.15)"/><path class="cls-1" d="M267.69,86.6a1.24,1.24,0,0,1-.37-.94V81a1.23,1.23,0,0,1,.37-.93,1.27,1.27,0,0,1,.93-.37h6.24a1.31,1.31,0,0,1,.94.37,1.26,1.26,0,0,1,.36.93v4.68a1.27,1.27,0,0,1-.36.94,1.3,1.3,0,0,1-.94.36h-6.24A1.26,1.26,0,0,1,267.69,86.6Zm.05,30.94a1.24,1.24,0,0,1-.37-.94V92.16a1.23,1.23,0,0,1,.37-.93,1.27,1.27,0,0,1,.93-.37h6.14a1.31,1.31,0,0,1,.94.37,1.26,1.26,0,0,1,.36.93V116.6a1.29,1.29,0,0,1-.36.91,1.24,1.24,0,0,1-.94.39h-6.14A1.26,1.26,0,0,1,267.74,117.54Z" transform="translate(-14.17 -24.15)"/><path class="cls-1" d="M282.14,117.54a1.27,1.27,0,0,1-.36-.94V92.16a1.26,1.26,0,0,1,.36-.93,1.29,1.29,0,0,1,.94-.37h6a1.37,1.37,0,0,1,1,.37,1.21,1.21,0,0,1,.39.93v2A10.37,10.37,0,0,1,294,91.38a11.73,11.73,0,0,1,5-1,9.69,9.69,0,0,1,7.44,3.1c1.9,2.06,2.86,5,2.86,8.66v14.5a1.26,1.26,0,0,1-.37.91,1.21,1.21,0,0,1-.93.39h-6.56a1.24,1.24,0,0,1-.9-.39,1.2,1.2,0,0,1-.39-.91V102.41a5.42,5.42,0,0,0-1.2-3.77,4.37,4.37,0,0,0-3.43-1.33,4.45,4.45,0,0,0-3.43,1.33,5.25,5.25,0,0,0-1.25,3.77V116.6a1.26,1.26,0,0,1-.37.91,1.21,1.21,0,0,1-.93.39h-6.5A1.28,1.28,0,0,1,282.14,117.54Z" transform="translate(-14.17 -24.15)"/><path class="cls-1" d="M317.84,117.36a8.67,8.67,0,0,1-3.54-2.91,7,7,0,0,1-1.27-4.09,6.85,6.85,0,0,1,2.94-5.77,18.37,18.37,0,0,1,8.08-3l6.5-1v-.73a4.25,4.25,0,0,0-.83-2.91,3.58,3.58,0,0,0-2.81-.94,4.14,4.14,0,0,0-2,.42,9.3,9.3,0,0,0-1.62,1.14,7.05,7.05,0,0,1-1.09.83.57.57,0,0,1-.57.42H316a1.13,1.13,0,0,1-.85-.34.9.9,0,0,1-.29-.8,5.56,5.56,0,0,1,1.38-3.12,10.41,10.41,0,0,1,4-3A16.22,16.22,0,0,1,327,90.34q6.39,0,9.46,2.84a9.86,9.86,0,0,1,3.07,7.62v15.8a1.26,1.26,0,0,1-.37.91,1.21,1.21,0,0,1-.93.39h-6a1.33,1.33,0,0,1-1.3-1.3v-1.82a8.41,8.41,0,0,1-3.2,2.63,10.82,10.82,0,0,1-4.86,1A11.64,11.64,0,0,1,317.84,117.36Zm11.34-6.42a6.45,6.45,0,0,0,1.48-4.58v-.73l-4.42.78q-4.68.84-4.68,3.28a2.36,2.36,0,0,0,1.09,2,4.57,4.57,0,0,0,2.65.76A5.12,5.12,0,0,0,329.18,110.94Z" transform="translate(-14.17 -24.15)"/><path class="cls-1" d="M353.43,114.94v1.66a1.29,1.29,0,0,1-.36.91,1.23,1.23,0,0,1-.94.39h-5.87a1.33,1.33,0,0,1-1.3-1.3V82.28a1.21,1.21,0,0,1,.39-.93,1.3,1.3,0,0,1,.91-.37h6.34a1.31,1.31,0,0,1,.94.37,1.26,1.26,0,0,1,.36.93V93.41a10,10,0,0,1,7.59-3.07,10.13,10.13,0,0,1,8,3.28c1.94,2.18,3,5.15,3.12,8.89,0,.45.05,1.08.05,1.87s0,1.37-.05,1.82c-.18,3.89-1.22,6.89-3.12,9a10.13,10.13,0,0,1-8,3.19A9.86,9.86,0,0,1,353.43,114.94Zm8.76-4.94a7.52,7.52,0,0,0,1.23-4c.07-.7.1-1.23.1-1.62s0-.91-.1-1.61a7.49,7.49,0,0,0-1.23-4,4.06,4.06,0,0,0-3.51-1.46,4.32,4.32,0,0,0-3.48,1.41,5.67,5.67,0,0,0-1.3,3.53l0,1.93,0,2a7,7,0,0,0,1.27,3.82,4.12,4.12,0,0,0,3.51,1.49A4.06,4.06,0,0,0,362.19,110Z" transform="translate(-14.17 -24.15)"/><path class="cls-1" d="M377.69,117.51a1.24,1.24,0,0,1-.39-.91V82.28a1.21,1.21,0,0,1,.39-.93,1.3,1.3,0,0,1,.91-.37h6.14a1.26,1.26,0,0,1,1.3,1.3V116.6a1.27,1.27,0,0,1-.37.94,1.26,1.26,0,0,1-.93.36H378.6A1.24,1.24,0,0,1,377.69,117.51Z" transform="translate(-14.17 -24.15)"/><path class="cls-1" d="M394.36,115c-2.4-2.25-3.64-5.53-3.75-9.82V103.4q.21-6.14,3.82-9.6t9.7-3.46a14.39,14.39,0,0,1,7.46,1.8,11.42,11.42,0,0,1,4.58,4.91,16.1,16.1,0,0,1,1.54,7.18v1.25a1.32,1.32,0,0,1-.37.91,1.21,1.21,0,0,1-.94.39H399.76v.36a7.09,7.09,0,0,0,1.2,4,3.66,3.66,0,0,0,3.17,1.51,3.74,3.74,0,0,0,2.13-.55,7,7,0,0,0,1.51-1.32,2.47,2.47,0,0,1,.76-.7,2.27,2.27,0,0,1,.91-.13h6.45a1.18,1.18,0,0,1,.8.28.93.93,0,0,1,.34.76,5.09,5.09,0,0,1-1.54,3.12,12.53,12.53,0,0,1-4.44,3.06,16.68,16.68,0,0,1-6.87,1.3Q397.94,118.42,394.36,115Zm14.19-13.41v-.11a6.35,6.35,0,0,0-1.17-4A3.93,3.93,0,0,0,404.13,96a3.88,3.88,0,0,0-3.2,1.48,6.35,6.35,0,0,0-1.17,4v.11Z" transform="translate(-14.17 -24.15)"/><path class="cls-1" d="M422.25,117.51a1.24,1.24,0,0,1-.39-.91V110a1.24,1.24,0,0,1,.39-.94,1.31,1.31,0,0,1,.91-.36h6.61a1.25,1.25,0,0,1,1.3,1.3v6.6a1.26,1.26,0,0,1-.37.91,1.21,1.21,0,0,1-.93.39h-6.61A1.26,1.26,0,0,1,422.25,117.51Z" transform="translate(-14.17 -24.15)"/><path class="cls-1" d="M63.8,84.24a30,30,0,1,1,30-30A30.08,30.08,0,0,1,63.8,84.24Zm0-54.42A24.38,24.38,0,1,0,88.17,54.19,24.4,24.4,0,0,0,63.8,29.82Z" transform="translate(-14.17 -24.15)"/><rect class="cls-1" x="9.9" y="96.17" width="39.83" height="8.5" transform="translate(-81.76 37.71) rotate(-51.86)"/><rect class="cls-1" x="8.29" y="95.68" width="48.29" height="2.83" transform="translate(-78.14 38.48) rotate(-51.85)"/><path class="cls-1" d="M40.24,47.67s.9-.1,1.9,2.7,3,1.64,3.39,2,.62,1.14,1.64,1.64,1.32-1.38.79,1.59.27,3.28,1.64,4.86S50.93,64,51,65.66s0,3,.9,4,1.11,1.9,1.27.85-.53-2.33.53-3.87,4-3.22,4.39-4.86,1.8-3.49,1.22-3.89-3-.66-4.39-2-3.1-3.15-4.77-2.89-2.49,1.19-2.93.39,0-1.09-.7-1.67.24-1.16-.51-1.23-1.72,1.42-2.13-.49,2.4-2,2.4-2c.51-.05,1.55.15,1.72.82s.46.73.5-.36A1.35,1.35,0,0,1,49.6,47c.48-.22.1-1.16,2-2.1s1.4-.54,2-.58,1.23-.34,1.14-.56-2.54-.48-1.79-.8,3.53-.31,3.34-1-.27-2.63-1.55-1.74.14-1.28-1.28-.63-1.65,2.79-2.38,2.76,0-.58-1.5-1.81,1.7-2,2.47-1.91,1.87-.22,1.55-.51-1.64.31-1.72-.41-.41.58-1.42.55-1.63.81-2.21.37-1-.83-1.57-.85a5.38,5.38,0,0,0-.82,0,22.65,22.65,0,0,0-3.43,4.57A28.85,28.85,0,0,0,40.24,47.67Z" transform="translate(-14.17 -24.15)"/><path class="cls-1" d="M81.51,37a.83.83,0,0,1-.83.26c-.57-.11-.63.88-1.09.88s-1.76-.26-1.56-.57S79.8,37,79.33,37s-2.54-1-4.15-.47a5.7,5.7,0,0,0-2.75,2.13c-.46.51-.33.25,1,1.29,1.75,1.33,1.56-2.28,1.87-1.9.59.75,0,1.34,2,1.49.73,0-1.4,1.66-2.44,1.66s-.41-.31-3.53.93-1.71.88-1.71,1.45,0,.94-.67.78-1-.16-.88,1.19,1.71,1.45,2,.68,1.45-2.18,2.18-2.13,2,.52,2.18,1,.17,1.45.32,1.14-.25-1.3,0-1.92.56.62.82,1.3.51,1.4.83.77-.11-1.5.51-1.5,1.14.88,1.2-.26,1.34-1.92,2-1,1.55,1.56.51,1.56-3.47-.26-3.31.31,1.45.87,2.12,1.21,1.09,1.69-1.09,1.28-2.28.52-3.11.36a3.83,3.83,0,0,1-2-1.61c-.1-.31-3.38-.77-5.17.68s-1.88,2.85-2.24,3.16.26,1.92,0,2.59.2,1.51,1.24,2.6,2.44.2,3.58.36,2.23-.26,2.23.78a8.31,8.31,0,0,0,.74,2.8,2.81,2.81,0,0,1,0,2.9c-.69,1.61.81,3.47,1.18,4.1s.1,2.07.93,2,.26-.42.83-.31,3.21-1.66,3.47-2.8-.36-1.25.26-1.92S82,63,81.92,61.51s-1-2.33-.21-3.16S84.88,55.5,85,54.77s.26-.58-1-.42-1.82.47-2.23-.51a18.77,18.77,0,0,0-1.3-3.16c-.62-.94-2.07-3.58.73,0s.72,3.32,2.38,2.9,2.49-.78,2.49-1.35,1.35-.93,1.09-1.4-.88-.15-1.09-.62-1,.21-1.82-.57-1.19-2.28-.15-1.3,1.66.57,2.23,1a2.49,2.49,0,0,0,1.4.62h.41a33,33,0,0,0-2.75-7.57A33.46,33.46,0,0,0,81.51,37Z" transform="translate(-14.17 -24.15)"/><path class="cls-1" d="M83.78,64.39c.34-.8.92-1,.92-1.72s.31-1.26-.29-1-1,1-1.46,1,0,.82-.12,1.18-.67.66-.48,1,.46,1,.92.68S83.78,64.39,83.78,64.39Z" transform="translate(-14.17 -24.15)"/><path class="cls-1" d="M68.07,41.58c.2.2.86.34,1-.07s.14-.8-.2-.74S68.07,41.58,68.07,41.58Z" transform="translate(-14.17 -24.15)"/><path class="cls-1" d="M69.56,39.86a.65.65,0,0,0,0,.9c.28.36.59.56.25.68s-.65.27-.41.54a.89.89,0,0,0,1.06.18c.3-.21.49-.51.62-.55s-.45,0-.55-.2-.06-.6-.1-.65-.55.06-.55-.13.24-.12.19-.33S69.56,39.86,69.56,39.86Z" transform="translate(-14.17 -24.15)"/><path class="cls-1" d="M66.66,35.34a2,2,0,0,1-1-.18,14.22,14.22,0,0,0-3,0c-.4,0-.56.38-1,.36a3.68,3.68,0,0,0-2.57.18c-1.74.6-2.43.76-1.56.83s2.07-.63,1.92.55-.72,1.32-.69,1.61.2,1.27.84,1.23,1-1.16,1.66-1.18.89,0,1.16-.27A2.09,2.09,0,0,1,64,37.84c.94-.09,1.16-.08,1-.35s-1-.25-1-.65.71.27,1,.13.16-.8.52-.91.79-.09,1-.4Z" transform="translate(-14.17 -24.15)"/><path class="cls-1" d="M65.29,39.14c.44-.09,1.12-.32.89-.42a2.74,2.74,0,0,0-.89-.09c-.3,0-.9,0-.81.25S65.29,39.14,65.29,39.14Z" transform="translate(-14.17 -24.15)"/><path class="cls-1" d="M58.08,34.9c-1.18,0-2.76-.51-2.6,0s.62.6.36.62-.73,0-.62.23-.18.6.14.6a4.68,4.68,0,0,0,1.94-.41,12.44,12.44,0,0,1,1.7-.6c.23-.14.23-.35-.34-.39Z" transform="translate(-14.17 -24.15)"/><path class="cls-1" d="M54.31,38.72c.12.31.49.14.62.42s.36.77.55.63-.19-.56,0-.51.39.11.51,0-.16-.82.14-.78.83.35.85.15-.43-.46-.41-.62.16-.35-.46-.59a2.23,2.23,0,0,0-1.06-.23c-.25,0-.33-.13-.59-.11s-.5,0-.68,0-.76.14-.53.35.63-.05.82,0,.59.16.53.48.45.53.12.53A.41.41,0,0,0,54.31,38.72Z" transform="translate(-14.17 -24.15)"/><path class="cls-1" d="M47.18,37.14c.63-.27.54-.52,1.53-.29a8.4,8.4,0,0,0,1.38.29c.16,0,.5.1.49.35s-.18.43-1,.36-.66.23-1,.16-.45-.13-.16-.37.26-.36-.07-.36-.45.12-.78.11A.44.44,0,0,1,47.18,37.14Z" transform="translate(-14.17 -24.15)"/></svg>